<?xml version="1.0" encoding="utf-8"?>
<!-- Generator: Adobe Illustrator 22.1.0, SVG Export Plug-In . SVG Version: 6.00 Build 0)  -->
<svg version="1.1" xmlns="http://www.w3.org/2000/svg" xmlns:xlink="http://www.w3.org/1999/xlink" x="0px" y="0px"
	 viewBox="0 0 800 800" style="enable-background:new 0 0 800 800;" xml:space="preserve">
<style type="text/css">
	.st0{display:none;}
	.st1{display:inline;fill-rule:evenodd;clip-rule:evenodd;fill:#FFDF1F;}
	.st2{fill-rule:evenodd;clip-rule:evenodd;fill:#00A99D;}
	.st3{fill-rule:evenodd;clip-rule:evenodd;fill:#003240;}
	.st4{fill-rule:evenodd;clip-rule:evenodd;fill:#2E3192;}
	.st5{fill-rule:evenodd;clip-rule:evenodd;fill:#0071BC;}
	.st6{fill-rule:evenodd;clip-rule:evenodd;fill:#FAAE7D;}
	.st7{fill-rule:evenodd;clip-rule:evenodd;fill:#FFCFB0;}
	.st8{opacity:0.5;fill-rule:evenodd;clip-rule:evenodd;fill:#A8473E;}
	.st9{fill-rule:evenodd;clip-rule:evenodd;fill:#00B053;}
	.st10{fill-rule:evenodd;clip-rule:evenodd;fill:#00D464;}
	.st11{fill-rule:evenodd;clip-rule:evenodd;fill:#002053;}
	.st12{fill-rule:evenodd;clip-rule:evenodd;fill:#0040A8;}
	.st13{fill:#632A1C;}
	.st14{fill-rule:evenodd;clip-rule:evenodd;}
	.st15{opacity:0.5;}
	.st16{fill-rule:evenodd;clip-rule:evenodd;fill:#999999;}
	.st17{fill:#000F26;}
	.st18{fill:#0E6335;}
	.st19{fill-rule:evenodd;clip-rule:evenodd;fill:#14B5B3;}
	.st20{fill:#FFFFFF;}
	.st21{font-family:'Raleway-Bold';}
	.st22{font-size:60px;}
	.st23{font-family:'CenturyGothic';}
	.st24{font-size:26px;}
	.st25{display:inline;}
	.st26{fill-rule:evenodd;clip-rule:evenodd;fill:#F15A24;}
</style>
<g id="background" class="st0">
	<path class="st1" d="M778,753.7c0,13.3-10.7,24-24,24H49c-13.3,0-24-10.7-24-24v-705c0-13.3,10.7-24,24-24h705
		c13.3,0,24,10.7,24,24V753.7z"/>
</g>
<g id="objects">
	<path class="st2" d="M745.6,177.7l-416.1-17.8c-9.3-0.4-17.2,6.8-17.6,16.1l-2.4,55.3H178.3c-61.6,0-111.6,50-111.6,111.6v208.5
		c0,61.6,50,111.6,111.6,111.6h430.3c61.6,0,111.6-50,111.6-111.6V342.9c0-21.9-6.3-42.4-17.3-59.7l38.1,1.6
		c9.3,0.4,17.2-6.8,17.6-16.1l3.1-73.5C762.2,185.9,754.9,178.1,745.6,177.7z"/>
	<g>
		<path class="st3" d="M713,543.9c0,61.6-50,111.6-111.6,111.6H171c-61.6,0-111.6-50-111.6-111.6V335.4c0-61.6,50-111.6,111.6-111.6
			h430.3c61.6,0,111.6,50,111.6,111.6V543.9z"/>
		<path class="st4" d="M62.5,546.1V337.6c0-61.6,50-111.6,111.6-111.6h430.3c23.3,0,44.9,7.1,62.8,19.4
			c-18.5-13.5-41.2-21.5-65.9-21.5H171c-61.6,0-111.6,50-111.6,111.6v208.5c0,38.3,19.3,72.2,48.8,92.3
			C80.5,615.9,62.5,583.1,62.5,546.1z"/>
		<path class="st4" d="M601.4,223.8H304.7l-1.1,25.9c-0.4,9.3,6.8,17.2,16.1,17.6l380.5,16.3C681.5,248,644.3,223.8,601.4,223.8z"/>
		<path class="st4" d="M91.9,253.7c3.2,7.9,6.4,16.2,11.1,23.3c-0.5-0.8,0.1-0.1,1.8,1.9c-22.9-3.3-15.3,32.6-7.4,42.1
			c4.5,5.4,11.4,8.6,18.4,7.1c2.4,10,5.3,22.6,14.6,28.6c5.8,3.8,6.6,4.1,9.9,10c6.1,10.8,18.3,17.4,29.3,22.4
			c6.5,3,1.5,24.8-1.1,31.2c-2.6,6.5-6.9,12.2-12.1,16.8c-1.8,1.6-7,1.5-5.6-1.1c-5.2,1.9-10.4,3.9-15.5,6
			c-23.8,9.8-54.5,23.4-67.6,47.3c-6.2,11.3-2.8,29.3-2.8,41.7c0,26.4,2.4,50.7,16.7,73.7c12.8,20.7,32.4,36.9,55.1,45.6
			c12.8,4.9,27.2,4.6,40.8,4.6c56.4,0,112.9,0,169.3,0c0,0,0,0,0,0c-0.2-24.6-1.5-49.1-1.9-73.7c0-2.1-0.1-4.1-0.1-6.2
			c-1.2,0.9,3.1-2.3,3.1-2.8c-0.1-2.8-0.1-5.7-0.2-8.5c-0.4-13.3-0.7-26.5-1.2-39.8c-0.4-11.3,0.9-23.9-4.5-34.2
			c-6.5-12.2-18.4-21.2-29.8-28.5c-15.5-9.8-32.4-17.4-49.6-23.8c-5.1-1.9-3.5-2-6.7,1.4c-1.6-1.2-3-2.4-4.4-3.8
			c-2.4-2.3-5.2-5.3-6.7-8.3c-4-6.4-6-13.8-6.5-21.4c-0.2-5.6-0.5-11.2-0.7-16.8c5.6-2.7,11-5.9,16-9.7c13.7-10.2,15.6-18.2,15.5-35
			c-0.1-12.9-3.3-120.2-9.7-120.2c-24.5,0-49.1-0.6-73.6-0.6C151,223.3,118.6,228.5,91.9,253.7C91.9,253.8,111.9,234.9,91.9,253.7z"
			/>
	</g>
	<g>
		<path class="st5" d="M751.4,261.2c-0.4,9.3-8.3,16.5-17.6,16.1l-416.1-17.8c-9.3-0.4-16.5-8.3-16.1-17.6l3.1-73.5
			c0.4-9.3,8.3-16.5,17.6-16.1l416.1,17.8c9.3,0.4,16.5,8.3,16.1,17.6L751.4,261.2z"/>
		<path class="st4" d="M303.8,244.3l3.1-73.5c0.4-9.3,8.3-16.5,17.6-16.1l416.1,17.8c3.8,0.2,7.3,1.6,10,3.8
			c-2.9-3.6-7.3-5.9-12.3-6.1l-416.1-17.8c-9.3-0.4-17.2,6.8-17.6,16.1l-3.1,73.5c-0.2,5.5,2.2,10.5,6.2,13.7
			C305.1,252.6,303.7,248.6,303.8,244.3z"/>
	</g>
	<g>
		<path class="st6" d="M310,466.3c-21.2-16.8-74.4-17.9-77.1-63c-0.5-13-1.1-25.5-1.1-25.5h-37.5h-6.7h-20.3c0,0-0.5,12.5-1.1,25.5
			c-2.7,45.1-55.9,46.2-77.1,63c-19.2,15.3-27.7,37.8-29.1,89c5.7,56.3,53.2,100.2,111,100.2h170.2c0.1-14.9-1.9-65.5-1.9-83.8
			C339.4,508.7,331.2,483.2,310,466.3z"/>
		<g>
			<path class="st7" d="M312.2,470.3c5.9,4.7,10.8,10.1,14.8,16.8c-4.3-8.6-10-15.2-17-20.8c-17.2-13.6-55.3-16.9-70.7-41.7
				C252.9,453.1,294.2,456,312.2,470.3z"/>
			<path class="st7" d="M62.2,559.3c1.4-51.2,9.9-73.7,29.1-89c21.2-16.8,74.4-17.9,77.1-63c0.5-13,1.1-25.5,1.1-25.5h20.3h6.7H232
				c-0.1-2.5-0.2-4-0.2-4h-37.5h-6.7h-20.3c0,0-0.5,12.5-1.1,25.5c-2.7,45.1-55.9,46.2-77.1,63c-19.2,15.3-27.7,37.8-29.1,89
				c1.6,15.9,6.6,30.8,14.1,44.1C67.8,587.2,63.6,573.6,62.2,559.3z"/>
		</g>
		<path class="st8" d="M235.5,416.7c-1.4-4-2.3-8.4-2.6-13.4c-0.5-13-1.1-25.5-1.1-25.5h-37.5h-6.7h-20.3c0,0-0.5,12.5-1.1,25.5
			c-0.3,5.6-1.5,10.5-3.2,14.9C192.6,432.1,218,426,235.5,416.7z"/>
		<path class="st9" d="M253.1,433.9c-0.5-0.9-12,21.5-53.9,21.5c-41.9,0-53.4-22.4-53.9-21.5c-42.3,15.3-78.7,36.6-85.9,59.7v50.3
			c0,11.1,1.6,21.9,4.7,32.1c14.8,7.4,35.2,5.1,39.7,5.1c0.3,19.7,0.3,38.1,0.2,52c18.7,14,37.7,22.5,67,22.4h123.5
			c-0.1-9.1-0.4-39.8,0-74.4c5.4,0,33.7,3.3,47.8-10.9c0,0-1.1-43.5-2.2-69.5C339.2,474.9,299.8,450.7,253.1,433.9z"/>
		<g>
			<path class="st10" d="M144.8,438.2c0.5-0.9,12,21.5,53.9,21.5c41.9,0,53.4-22.4,53.9-21.5c46.7,16.8,86.1,41,87.2,66.9
				c0.9,21.5,1.8,54.7,2.1,65.8c0.2-0.2,0.4-0.4,0.6-0.6c0,0-1.1-43.5-2.2-69.5c-1.1-25.8-40.5-50-87.2-66.9
				c-0.5-0.9-12,21.5-53.9,21.5c-41.9,0-53.4-22.4-53.9-21.5c-42.3,15.3-78.7,36.6-85.9,59.7v2.8
				C67.7,473.9,103.4,453.2,144.8,438.2z"/>
		</g>
		<path class="st11" d="M249.3,212c12.4-3.4,23.9-19.8,12.1-36.5c-11.8-16.7-20.1,14.3-20.1,14.3S246.9,206.1,249.3,212z"/>
		<path class="st6" d="M235.1,186.1c24.1,20,24.3,58.8,25,87.8c0.6,29,7.6,83.1,0.1,92c-7.5,9-57.7,56.1-120.4,5.6
			c-8.9-9.9-17.4-36.7-21.9-49.4c-11.8,9.6-32.2,3-34.2-27.6c-1.1-17.4,19.1-26.8,28.2-6.3c-5.5-46-1.8-91.2,17.2-99.9
			C148.1,179.8,181.7,148,235.1,186.1z"/>
		<path class="st7" d="M115.1,286.8c-5.5-46-1.8-91.2,17.2-99.9c6.4-2.9,14.5-8.4,24.4-13.1c-11.4,4.8-20.6,11.3-27.7,14.5
			c-17.9,8.1-22.2,48.7-18.1,91.8C112.5,281.9,113.9,284.1,115.1,286.8z"/>
		<path class="st7" d="M86.9,293.1c-0.5-7.3,2.8-13.2,7.4-16c-6.3,1.8-11.3,8.6-10.7,17.5c1.8,28.5,19.6,36.2,31.6,29.4
			C103.6,327.8,88.6,319.1,86.9,293.1z"/>
		<path class="st7" d="M143,370.1c-8.9-9.9-17.4-36.7-21.9-49.4c-1,0.8-2,1.5-3.1,2c4.5,12.9,12.9,39,21.7,48.8
			c37.1,29.8,69.8,25.5,91.9,15.2C209.7,396,178.3,398.5,143,370.1z"/>
		<path class="st11" d="M105.9,200c-17.3-13-35.8,10.3-25.3,37.3c10.5,27,16.2,38.6,18.9,39.6c16.2,5.9,13.4,17.5,16.7,15.3
			c3.3-2.2,18.2-14.5,11-81.6c18.7,1.8,25.1-4,25.1-4c31.5-9.6,55.9,3,70-8.5c38.1,5.2,66.9-60.1,19-55.9
			c0.5-32.6-33.8-30.7-46.4-11.6c-17.4-10.1-57.8,6.1-62.9,27.2C127.1,179,103.2,169.7,105.9,200z"/>
		<g>
			<path class="st12" d="M113.2,288.6c1.1,2.4,1.4,4,2.4,3.9C115,291.3,114.3,290,113.2,288.6z"/>
			<path class="st12" d="M243.8,146.4c10.7-1,17.6,1.6,21.4,6c-2.6-6.5-9.3-10.8-21.5-10.3C243.8,143.6,243.8,145,243.8,146.4z"/>
			<path class="st4" d="M83.1,241.4c-10.5-27,8-50.3,25.3-37.3c-2.7-30.3,21.2-21,26.2-42c5.1-21.1,45.5-37.3,62.9-27.2
				c9.5-14.5,31.5-19,41.4-6.3c-8.1-17.6-33.4-13.6-43.8,2.2c-17.4-10.1-57.8,6.1-62.9,27.2c-5.1,21.1-28.9,11.7-26.2,42
				c-17.3-13-35.8,10.3-25.3,37.3c8.3,21.3,13.6,33,16.8,37.5C94.2,268.7,89.5,257.9,83.1,241.4z"/>
		</g>
		<g>
			<path class="st13" d="M168.6,295.1c-0.8,0-1.6-0.5-1.9-1.3c-3.1-8.6-7.8-11-11.1-10.3c-3.2,0.7-5.4,3.8-5.2,7.3
				c0.1,1.1-0.7,2.1-1.9,2.1c-1.1,0.1-2.1-0.7-2.1-1.9c-0.4-5.5,3.2-10.4,8.4-11.5c5-1.1,11.8,1.8,15.7,12.8c0.4,1-0.2,2.2-1.2,2.6
				C169.1,295,168.8,295.1,168.6,295.1z"/>
		</g>
		<path class="st14" d="M131.8,160.2c-22.1,7.1-48.3,19.6-31.3,119.2c-13.4,0-13.4,39.4,8.4,41c21.3,1.6,10.9-42.1,0-40.8
			c-10.2-84.9,10.9-105.1,15.1-106.6C128.2,170.2,131.8,160.2,131.8,160.2z"/>
		<g class="st15">
			<path class="st16" d="M104.8,281.6c-15.4-90.3,4.8-109,25.1-117c1.1-2.4,1.8-4.3,1.8-4.3c-22.1,7.1-48.3,19.6-31.3,119.2
				c-12.5,0-13.3,34.7,4.6,40.3C91.8,310.3,93.4,281.6,104.8,281.6z"/>
		</g>
		<g>
			<path class="st13" d="M200.9,336.1c-0.7,0-1.3-0.3-1.7-0.9c-0.6-0.9-0.3-2.2,0.6-2.8c9.7-6,5.7-21.7,1.5-38.4
				c-2.1-8.4-4.3-17.1-4.5-24.5c0-1.1,0.8-2,1.9-2.1c1.1,0,2,0.8,2.1,1.9c0.2,7,2.4,15.5,4.4,23.7c4.4,17.3,8.9,35.2-3.3,42.8
				C201.7,336.1,201.3,336.1,200.9,336.1z"/>
		</g>
		<g>
			<path class="st13" d="M140.3,263.8c-0.3,0-0.6-0.1-0.9-0.2c-1-0.5-1.4-1.7-0.9-2.7c2.2-4.4,9.4-9.6,18.4-10.7
				c1.1-0.1,2.1,0.6,2.2,1.7c0.1,1.1-0.6,2.1-1.7,2.2c-7.3,0.9-13.6,5.2-15.4,8.6C141.7,263.4,141,263.8,140.3,263.8z"/>
		</g>
		<g>
			<path class="st13" d="M227.6,287c-0.1,0-0.1,0-0.2,0c-1.1-0.1-1.9-1.1-1.8-2.2c1.1-11.7,7-16.1,12.1-16.3
				c5.3-0.2,10,3.7,10.9,9.1c0.2,1.1-0.5,2.1-1.6,2.3c-1.1,0.2-2.1-0.5-2.3-1.6c-0.6-3.4-3.5-5.9-6.8-5.8c-3.4,0.1-7.4,3.5-8.3,12.7
				C229.5,286.3,228.6,287,227.6,287z"/>
		</g>
		<g>
			<path class="st13" d="M247.5,249.8c-0.6,0-1.1-0.2-1.5-0.7c-2.5-2.9-9.7-5.5-17-4.6c-1.1,0.1-2.1-0.6-2.2-1.7
				c-0.1-1.1,0.6-2.1,1.7-2.2c9-1.1,17.3,2.2,20.5,5.9c0.7,0.8,0.6,2.1-0.2,2.8C248.4,249.7,247.9,249.8,247.5,249.8z"/>
		</g>
		<g>
			<path class="st17" d="M209.5,197.9c-1,0-1.9-0.8-2-1.8c-0.1-1.1,0.7-2.1,1.8-2.2c7.8-0.9,14.3-4.7,19.5-11.5
				c8-10.4,10.7-25.7,9.3-34.7c-0.2-1.1,0.6-2.1,1.7-2.3c1.1-0.2,2.1,0.6,2.3,1.7c1.6,9.9-1.4,26.5-10,37.8
				c-5.8,7.5-13.4,12.1-22.2,13C209.6,197.9,209.6,197.9,209.5,197.9z"/>
		</g>
		<g>
			<path class="st17" d="M186.7,195.2c-0.9,0-1.7-0.6-1.9-1.5c-0.3-1.1,0.4-2.2,1.5-2.4c11.7-2.8,26.9-16.4,28.9-29.8
				c1.3-9.1-3.4-16.9-14-23c-1-0.6-1.3-1.8-0.7-2.7c0.6-1,1.8-1.3,2.7-0.7c15.2,8.8,17.1,19.6,16,27.1
				c-2.4,16.4-20.2,30.4-31.9,33.1C187.1,195.2,186.9,195.2,186.7,195.2z"/>
		</g>
		<g>
			<path class="st13" d="M196.1,356.4c-7.7,0-16.1-4.8-22.6-12.8c-0.7-0.9-0.6-2.1,0.3-2.8c0.9-0.7,2.1-0.6,2.8,0.3
				c4.5,5.6,12.1,11.5,19.8,11.3c4.8-0.1,9.1-2.7,12.8-7.6c0.7-0.9,1.9-1.1,2.8-0.4c0.9,0.7,1.1,1.9,0.4,2.8
				c-4.4,6-9.7,9.1-15.9,9.2C196.3,356.4,196.2,356.4,196.1,356.4z"/>
		</g>
		<g>
			<path d="M143.7,360.7c-27.1,0-31.4-14.1-38.9-50.7c-0.2-1.1,0.5-2.1,1.6-2.4c1.1-0.2,2.1,0.5,2.4,1.6
				c8.4,40.7,11.6,50.2,45.2,46.9c1.1-0.1,2.1,0.7,2.2,1.8c0.1,1.1-0.7,2.1-1.8,2.2C150.4,360.5,146.9,360.7,143.7,360.7z"/>
		</g>
		<path class="st14" d="M164.1,356.3c0.3,3.1-2,5.8-5,6.1c-3.1,0.3-5.8-2-6.1-5c-0.3-3.1,2-5.8,5-6.1
			C161,350.9,163.8,353.2,164.1,356.3z"/>
		<g>
			<path class="st18" d="M104.3,587.2c-0.8,0-1.5-0.7-1.5-1.5c0-28.3-3-59.8-5-64.6c-0.3-0.8,0.1-1.6,0.8-1.9
				c0.8-0.3,1.6,0.1,1.9,0.8c2.3,5.7,5.2,38.5,5.2,65.7C105.8,586.5,105.2,587.2,104.3,587.2z"/>
		</g>
		<g>
			<path class="st18" d="M198.7,468.5c-8.6,0-16.1-1.2-22.3-2.7c-19.1-4.7-33.2-14.5-38.2-21.6c-0.5-0.7-0.3-1.6,0.4-2.1
				c0.7-0.5,1.6-0.3,2.1,0.4c9.6,13.7,54.8,37.2,104.2,11.1c0.7-0.4,1.6-0.1,2,0.6c0.4,0.7,0.1,1.6-0.6,2
				C228.7,465.5,212.5,468.5,198.7,468.5z"/>
		</g>
		<g>
			<path class="st18" d="M250.6,451.7c-0.4,0-0.8-0.2-1.1-0.5c-0.6-0.6-0.5-1.6,0.1-2.1l7.6-6.9c0.6-0.6,1.6-0.5,2.1,0.1
				c0.6,0.6,0.5,1.6-0.1,2.1l-7.6,6.9C251.4,451.6,251,451.7,250.6,451.7z"/>
		</g>
		<g>
			<path class="st18" d="M294.6,622.3c-0.8,0-1.5-0.7-1.5-1.5c0-6.2-0.1-14.6-0.1-24.4c-0.3-40.7-0.5-74.7,1.2-79.3
				c0.3-0.8,1.1-1.2,1.9-0.9c0.8,0.3,1.2,1.1,0.9,1.9c-1.6,4.5-1.2,48.9-1,78.3c0.1,9.8,0.1,18.2,0.1,24.4
				C296.1,621.6,295.4,622.3,294.6,622.3z"/>
		</g>
		<g>
			<path class="st18" d="M294.2,539.7c0,0-0.1,0-0.1,0c-0.8-0.1-1.4-0.8-1.4-1.6c0.3-4.4,2.4-13.2,6.2-15c0.8-0.4,1.6,0,2,0.7
				c0.4,0.7,0,1.6-0.7,2c-1.8,0.9-4.1,7.3-4.5,12.5C295.6,539.1,295,539.7,294.2,539.7z"/>
		</g>
		<g>
			<path class="st18" d="M89.1,573.7c-13.8,0-20.9-3-26.5-6.4c-0.7-0.4-0.9-1.4-0.5-2.1c0.4-0.7,1.4-0.9,2.1-0.5
				c6.2,3.7,14.5,7,33.5,5.6c0.8-0.1,1.5,0.6,1.6,1.4c0.1,0.8-0.6,1.5-1.4,1.6C94.7,573.6,91.8,573.7,89.1,573.7z"/>
		</g>
		<g>
			<path class="st18" d="M308.7,573.7c-2.2,0-4.6-0.1-7.1-0.3c-0.8-0.1-1.4-0.8-1.4-1.6c0.1-0.8,0.8-1.5,1.6-1.4
				c22.9,1.7,33.3-5.2,38.9-9l0.3-0.2c0.7-0.5,1.6-0.3,2.1,0.4c0.5,0.7,0.3,1.6-0.4,2.1l-0.3,0.2
				C337.5,567.2,327.8,573.7,308.7,573.7z"/>
		</g>
	</g>
	<g>
		<g>
			<path class="st4" d="M427,373.9c0,19.6-15.9,35.4-35.4,35.4c-19.6,0-35.4-15.9-35.4-35.4c0-19.6,15.9-35.4,35.4-35.4
				C411.1,338.4,427,354.3,427,373.9z"/>
			<g>
				<path class="st19" d="M424.9,366.2c0,19.6-15.9,35.4-35.4,35.4c-19.6,0-35.4-15.9-35.4-35.4c0-19.6,15.9-35.4,35.4-35.4
					C409.1,330.8,424.9,346.6,424.9,366.2z"/>
				<g>
					<path class="st20" d="M408.2,364.2c0,2.2-0.4,4.2-1.1,6c-0.7,1.8-1.7,3.2-3,4.3c-1.3,1-2.8,1.6-4.5,1.6c-1.1,0-2.1-0.3-3-0.8
						c-0.9-0.5-1.5-1.3-1.9-2.1h-0.4c-1.6,2-3.7,2.9-6.3,2.9c-2.7,0-4.8-0.8-6.4-2.4c-1.6-1.6-2.3-3.8-2.3-6.7c0-3.2,1-5.8,3.1-7.8
						c2-2,4.7-2.9,8-2.9c1.3,0,2.8,0.1,4.3,0.4c1.6,0.3,2.9,0.6,3.9,0.9l-0.5,11.2c0,2.1,0.6,3.2,1.7,3.2c1,0,1.8-0.7,2.3-2.1
						c0.6-1.4,0.9-3.3,0.9-5.6c0-2.5-0.5-4.6-1.5-6.5c-1-1.9-2.5-3.3-4.3-4.3c-1.8-1-4-1.5-6.3-1.5c-3.1,0-5.7,0.6-8,1.9
						c-2.3,1.3-4,3.1-5.2,5.5c-1.2,2.4-1.8,5.1-1.8,8.3c0,4.2,1.1,7.4,3.4,9.7c2.2,2.2,5.5,3.4,9.8,3.4c1.6,0,3.4-0.2,5.3-0.5
						c1.9-0.4,3.8-0.9,5.7-1.6v4.4c-3.3,1.4-6.9,2.1-10.8,2.1c-5.8,0-10.3-1.5-13.5-4.6c-3.2-3-4.8-7.3-4.8-12.7
						c0-3.8,0.8-7.2,2.5-10.2c1.7-3.1,4-5.5,7.1-7.2c3-1.7,6.6-2.6,10.5-2.6c3.3,0,6.3,0.7,9,2.1c2.6,1.4,4.7,3.3,6.1,5.8
						C407.4,357.9,408.2,360.9,408.2,364.2z M384.8,367c0,3.2,1.3,4.8,3.9,4.8c1.4,0,2.4-0.5,3.1-1.5c0.7-1,1.1-2.5,1.3-4.7l0.3-5
						c-0.8-0.2-1.7-0.3-2.6-0.3c-1.9,0-3.4,0.6-4.4,1.8C385.3,363.3,384.8,365,384.8,367z"/>
				</g>
			</g>
		</g>
		<g>
			<path class="st4" d="M427,462.3c0,19.6-15.9,35.4-35.4,35.4c-19.6,0-35.4-15.8-35.4-35.4c0-19.6,15.9-35.4,35.4-35.4
				C411.1,426.9,427,442.7,427,462.3z"/>
			<g>
				<path class="st19" d="M424.9,454.6c0,19.6-15.9,35.4-35.4,35.4c-19.6,0-35.4-15.8-35.4-35.4c0-19.6,15.9-35.4,35.4-35.4
					C409.1,419.2,424.9,435,424.9,454.6z"/>
				<path class="st20" d="M377.2,476.5c1.2-0.1,13.2-3.7,21.6-13c8.5-9.3,11-21.5,10.9-22.7c0-1.2-0.5-2.8-1.7-3.9
					c-1.2-1.1-6.5-3.6-7.1-3.8c-0.6-0.3-1.2-0.5-1.8,0.3c-0.6,0.7-6.5,10.4-6.7,11.2c-0.2,0.8,0.4,1.5,0.8,1.9
					c0.4,0.4,5.1,3.3,5.6,3.6c0.5,0.3,0.9,0.6,0.6,1.5c-0.2,0.9-2.6,5.4-5,8c-2.4,2.6-6.6,5.4-7.5,5.7c-0.8,0.3-1.2,0-1.5-0.5
					c-0.4-0.5-3.7-4.9-4.1-5.3c-0.4-0.4-1.1-0.9-1.9-0.6c-0.8,0.3-9.8,7.1-10.5,7.8c-0.7,0.6-0.4,1.2-0.1,1.8
					c0.3,0.6,3.3,5.6,4.5,6.7C374.3,476.2,376,476.6,377.2,476.5z"/>
			</g>
		</g>
		<g>
			<path class="st4" d="M427,550.7c0,19.6-15.9,35.4-35.4,35.4c-19.6,0-35.4-15.8-35.4-35.4c0-19.6,15.9-35.4,35.4-35.4
				C411.1,515.3,427,531.1,427,550.7z"/>
			<g>
				<path class="st19" d="M424.9,543c0,19.6-15.9,35.4-35.4,35.4c-19.6,0-35.4-15.8-35.4-35.4c0-19.6,15.9-35.4,35.4-35.4
					C409.1,507.6,424.9,523.5,424.9,543z"/>
				<path class="st20" d="M407,539.1c0-10-7.8-18-17.5-18c-9.7,0-17.5,8.1-17.5,18c0,3.4,0.9,6.5,2.5,9.2h0c0,0,0,0,0,0
					c0,0,0.1,0.1,0.1,0.1c4.1,7.1,14.9,19.1,14.9,19.1s10.9-12,14.9-19.1c0,0,0.1-0.1,0.1-0.1c0,0,0,0,0,0l0,0
					C406.1,545.6,407,542.5,407,539.1z M389.5,548.9c-5.2,0-9.5-4.4-9.5-9.8s4.2-9.8,9.5-9.8c5.2,0,9.5,4.4,9.5,9.8
					S394.8,548.9,389.5,548.9z"/>
			</g>
		</g>
	</g>
	<text transform="matrix(0.9991 4.274754e-02 -4.274754e-02 0.9991 323.4941 228.9227)" class="st20 st21 st22">CONTACT US !</text>
	<text transform="matrix(1 0 0 1 432.0933 375.5962)" class="st20 st23 st24">tripinline@gmail.com</text>
	<text transform="matrix(1 0 0 1 432.093 469.4785)" class="st20 st23 st24">9041228619</text>
	<text transform="matrix(1 0 0 1 430.0933 527.6033)"><tspan x="0" y="0" class="st20 st23 st24">5544|Modern Housing</tspan><tspan x="0" y="31.2" class="st20 st23 st24">Complex|Manimajra|</tspan><tspan x="0" y="62.4" class="st20 st23 st24">Chandigarh</tspan></text>
</g>
<g id="designed_by_freepik" class="st0">
	<g class="st25">
		<path class="st26" d="M288.5,764v-0.3c-0.3,0.4-0.7,0.7-1,1c-0.3,0.3-0.7,0.4-1.1,0.6c-0.4,0.1-0.8,0.2-1.3,0.2
			c-0.6,0-1.2-0.1-1.7-0.4c-0.5-0.3-1-0.6-1.4-1.1c-0.4-0.5-0.7-1.1-0.9-1.7c-0.2-0.7-0.3-1.4-0.3-2.1c0-1.6,0.4-2.9,1.2-3.8
			c0.8-0.9,1.8-1.4,3.1-1.4c0.7,0,1.4,0.1,1.9,0.4c0.5,0.3,1,0.7,1.5,1.2v-3.8c0-0.5,0.1-0.9,0.3-1.2c0.2-0.3,0.5-0.4,0.9-0.4
			c0.4,0,0.7,0.1,0.9,0.4c0.2,0.3,0.3,0.6,0.3,1.1V764c0,0.5-0.1,0.9-0.3,1.1c-0.2,0.2-0.5,0.4-0.9,0.4c-0.4,0-0.6-0.1-0.9-0.4
			C288.6,764.8,288.5,764.5,288.5,764z M283.4,760.2c0,0.7,0.1,1.3,0.3,1.8c0.2,0.5,0.5,0.9,0.9,1.1c0.4,0.3,0.8,0.4,1.2,0.4
			c0.5,0,0.9-0.1,1.3-0.4c0.4-0.2,0.7-0.6,0.9-1.1c0.2-0.5,0.3-1.1,0.3-1.8c0-0.7-0.1-1.3-0.3-1.8c-0.2-0.5-0.5-0.9-0.9-1.1
			c-0.4-0.3-0.8-0.4-1.3-0.4c-0.5,0-0.9,0.1-1.3,0.4c-0.4,0.3-0.7,0.7-0.9,1.2C283.5,758.9,283.4,759.5,283.4,760.2z"/>
		<path class="st26" d="M299.9,760.8h-5.1c0,0.6,0.1,1.1,0.4,1.6c0.2,0.5,0.5,0.8,0.9,1c0.4,0.2,0.8,0.3,1.3,0.3
			c0.3,0,0.6,0,0.8-0.1c0.3-0.1,0.5-0.2,0.7-0.3c0.2-0.2,0.5-0.3,0.7-0.5c0.2-0.2,0.5-0.4,0.8-0.7c0.1-0.1,0.3-0.2,0.6-0.2
			c0.3,0,0.5,0.1,0.6,0.2c0.2,0.1,0.2,0.4,0.2,0.6c0,0.2-0.1,0.5-0.3,0.8c-0.2,0.3-0.5,0.6-0.8,0.9c-0.4,0.3-0.8,0.5-1.4,0.7
			c-0.6,0.2-1.2,0.3-1.9,0.3c-1.7,0-3-0.5-3.9-1.4c-0.9-0.9-1.4-2.2-1.4-3.9c0-0.8,0.1-1.5,0.3-2.1c0.2-0.7,0.6-1.2,1-1.7
			c0.4-0.5,1-0.8,1.6-1.1c0.6-0.3,1.3-0.4,2.1-0.4c1,0,1.9,0.2,2.6,0.6c0.7,0.4,1.3,1,1.6,1.7c0.4,0.7,0.5,1.4,0.5,2.1
			c0,0.7-0.2,1.1-0.6,1.3C301.1,760.7,300.6,760.8,299.9,760.8z M294.9,759.4h4.7c-0.1-0.9-0.3-1.6-0.7-2c-0.4-0.4-1-0.7-1.6-0.7
			c-0.6,0-1.2,0.2-1.6,0.7C295.2,757.8,294.9,758.5,294.9,759.4z"/>
		<path class="st26" d="M311.7,762.1c0,0.7-0.2,1.3-0.5,1.8c-0.3,0.5-0.9,0.9-1.5,1.2c-0.7,0.3-1.5,0.4-2.5,0.4
			c-0.9,0-1.7-0.1-2.4-0.4c-0.7-0.3-1.2-0.6-1.5-1.1c-0.3-0.4-0.5-0.9-0.5-1.3c0-0.3,0.1-0.5,0.3-0.7c0.2-0.2,0.5-0.3,0.8-0.3
			c0.3,0,0.5,0.1,0.6,0.2c0.1,0.1,0.3,0.3,0.4,0.6c0.3,0.5,0.6,0.8,1,1c0.4,0.2,0.9,0.3,1.5,0.3c0.5,0,0.9-0.1,1.3-0.3
			c0.3-0.2,0.5-0.5,0.5-0.8c0-0.5-0.2-0.8-0.5-1c-0.3-0.2-0.9-0.4-1.7-0.6c-0.9-0.2-1.6-0.5-2.2-0.7c-0.6-0.2-1-0.6-1.3-1
			c-0.3-0.4-0.5-0.9-0.5-1.5c0-0.5,0.2-1,0.5-1.5c0.3-0.5,0.8-0.8,1.4-1.1c0.6-0.3,1.3-0.4,2.2-0.4c0.7,0,1.3,0.1,1.8,0.2
			c0.5,0.1,1,0.3,1.3,0.6c0.4,0.2,0.6,0.5,0.8,0.8c0.2,0.3,0.3,0.6,0.3,0.8c0,0.3-0.1,0.5-0.3,0.7c-0.2,0.2-0.5,0.3-0.9,0.3
			c-0.3,0-0.5-0.1-0.7-0.2c-0.2-0.2-0.4-0.4-0.6-0.7c-0.2-0.3-0.4-0.5-0.7-0.6c-0.3-0.2-0.6-0.2-1.1-0.2c-0.5,0-0.9,0.1-1.2,0.3
			c-0.3,0.2-0.5,0.4-0.5,0.7c0,0.3,0.1,0.5,0.3,0.7c0.2,0.2,0.5,0.3,0.9,0.4c0.4,0.1,0.9,0.3,1.6,0.4c0.8,0.2,1.5,0.4,2,0.7
			c0.5,0.3,0.9,0.6,1.2,1C311.6,761.2,311.7,761.6,311.7,762.1z"/>
		<path class="st26" d="M314.4,753.7c-0.4,0-0.7-0.1-0.9-0.3c-0.3-0.2-0.4-0.5-0.4-0.9c0-0.4,0.1-0.7,0.4-0.9
			c0.3-0.2,0.6-0.4,0.9-0.4c0.3,0,0.6,0.1,0.9,0.3c0.3,0.2,0.4,0.5,0.4,0.9c0,0.4-0.1,0.7-0.4,0.9
			C315,753.6,314.7,753.7,314.4,753.7z M315.7,756.4v7.5c0,0.5-0.1,0.9-0.4,1.2c-0.2,0.3-0.6,0.4-0.9,0.4c-0.4,0-0.7-0.1-0.9-0.4
			c-0.2-0.3-0.4-0.7-0.4-1.2v-7.4c0-0.5,0.1-0.9,0.4-1.2c0.2-0.3,0.5-0.4,0.9-0.4c0.4,0,0.7,0.1,0.9,0.4
			C315.5,755.6,315.7,755.9,315.7,756.4z"/>
		<path class="st26" d="M327,756.8v7.5c0,0.9-0.1,1.6-0.3,2.2c-0.2,0.6-0.5,1.1-0.9,1.5c-0.4,0.4-0.9,0.7-1.6,0.9
			c-0.7,0.2-1.5,0.3-2.4,0.3c-0.9,0-1.7-0.1-2.4-0.4c-0.7-0.3-1.2-0.6-1.6-1c-0.4-0.4-0.6-0.8-0.6-1.2c0-0.3,0.1-0.6,0.3-0.8
			c0.2-0.2,0.5-0.3,0.8-0.3c0.4,0,0.7,0.2,1,0.5c0.1,0.2,0.3,0.3,0.4,0.5c0.1,0.2,0.3,0.3,0.5,0.4c0.2,0.1,0.4,0.2,0.7,0.3
			c0.3,0.1,0.5,0.1,0.9,0.1c0.7,0,1.2-0.1,1.6-0.3c0.4-0.2,0.6-0.4,0.8-0.8c0.2-0.3,0.2-0.7,0.3-1.1c0-0.4,0-1,0.1-1.8
			c-0.4,0.6-0.9,1-1.4,1.3c-0.5,0.3-1.1,0.4-1.9,0.4c-0.9,0-1.6-0.2-2.3-0.7c-0.6-0.4-1.1-1.1-1.5-1.9c-0.3-0.8-0.5-1.7-0.5-2.8
			c0-0.8,0.1-1.5,0.3-2.1c0.2-0.6,0.5-1.2,0.9-1.6c0.4-0.4,0.8-0.8,1.4-1c0.5-0.2,1.1-0.3,1.7-0.3c0.7,0,1.4,0.1,1.9,0.4
			c0.5,0.3,1,0.7,1.5,1.3v-0.4c0-0.4,0.1-0.8,0.3-1c0.2-0.2,0.5-0.4,0.9-0.4c0.5,0,0.8,0.2,1,0.5C326.9,755.7,327,756.2,327,756.8z
			 M319.5,760.1c0,1.1,0.2,1.8,0.7,2.4c0.5,0.5,1.1,0.8,1.8,0.8c0.4,0,0.8-0.1,1.2-0.3c0.4-0.2,0.7-0.6,0.9-1c0.2-0.5,0.4-1,0.4-1.7
			c0-1.1-0.2-1.9-0.7-2.5c-0.5-0.6-1.1-0.9-1.8-0.9c-0.7,0-1.3,0.3-1.8,0.8C319.7,758.3,319.5,759.1,319.5,760.1z"/>
		<path class="st26" d="M331.2,756.4v0.3c0.5-0.6,1-1,1.5-1.3c0.5-0.3,1.2-0.4,1.9-0.4c0.7,0,1.3,0.1,1.8,0.4
			c0.5,0.3,0.9,0.7,1.2,1.3c0.2,0.3,0.3,0.7,0.3,1c0.1,0.4,0.1,0.8,0.1,1.4v4.8c0,0.5-0.1,0.9-0.4,1.2c-0.2,0.3-0.5,0.4-0.9,0.4
			c-0.4,0-0.7-0.1-0.9-0.4c-0.2-0.3-0.4-0.7-0.4-1.2v-4.3c0-0.9-0.1-1.5-0.4-2c-0.2-0.5-0.7-0.7-1.4-0.7c-0.5,0-0.9,0.1-1.3,0.4
			c-0.4,0.3-0.7,0.7-0.8,1.1c-0.1,0.4-0.2,1.1-0.2,2.2v3.2c0,0.5-0.1,0.9-0.4,1.2c-0.2,0.3-0.6,0.4-0.9,0.4c-0.4,0-0.7-0.1-0.9-0.4
			c-0.2-0.3-0.4-0.7-0.4-1.2v-7.5c0-0.5,0.1-0.9,0.3-1.1c0.2-0.2,0.5-0.4,0.9-0.4c0.2,0,0.4,0.1,0.6,0.2c0.2,0.1,0.3,0.3,0.4,0.5
			C331.1,755.8,331.2,756,331.2,756.4z"/>
		<path class="st26" d="M346.9,760.8h-5.1c0,0.6,0.1,1.1,0.4,1.6c0.2,0.5,0.5,0.8,0.9,1c0.4,0.2,0.8,0.3,1.3,0.3
			c0.3,0,0.6,0,0.9-0.1c0.3-0.1,0.5-0.2,0.7-0.3c0.2-0.2,0.5-0.3,0.7-0.5c0.2-0.2,0.5-0.4,0.8-0.7c0.1-0.1,0.3-0.2,0.6-0.2
			c0.3,0,0.5,0.1,0.6,0.2c0.2,0.1,0.2,0.4,0.2,0.6c0,0.2-0.1,0.5-0.3,0.8c-0.2,0.3-0.5,0.6-0.8,0.9c-0.4,0.3-0.8,0.5-1.4,0.7
			c-0.6,0.2-1.2,0.3-1.9,0.3c-1.7,0-3-0.5-3.9-1.4c-0.9-0.9-1.4-2.2-1.4-3.9c0-0.8,0.1-1.5,0.3-2.1c0.2-0.7,0.6-1.2,1-1.7
			c0.4-0.5,1-0.8,1.6-1.1c0.6-0.3,1.3-0.4,2.1-0.4c1,0,1.9,0.2,2.6,0.6c0.7,0.4,1.3,1,1.6,1.7c0.4,0.7,0.5,1.4,0.5,2.1
			c0,0.7-0.2,1.1-0.6,1.3C348.1,760.7,347.6,760.8,346.9,760.8z M341.9,759.4h4.7c-0.1-0.9-0.3-1.6-0.7-2c-0.4-0.4-1-0.7-1.6-0.7
			c-0.6,0-1.2,0.2-1.6,0.7C342.2,757.8,341.9,758.5,341.9,759.4z"/>
		<path class="st26" d="M357.5,764v-0.3c-0.3,0.4-0.7,0.7-1,1c-0.3,0.3-0.7,0.4-1.1,0.6c-0.4,0.1-0.8,0.2-1.3,0.2
			c-0.6,0-1.2-0.1-1.7-0.4c-0.5-0.3-1-0.6-1.4-1.1c-0.4-0.5-0.7-1.1-0.9-1.7c-0.2-0.7-0.3-1.4-0.3-2.1c0-1.6,0.4-2.9,1.2-3.8
			c0.8-0.9,1.8-1.4,3.1-1.4c0.7,0,1.4,0.1,1.9,0.4c0.5,0.3,1,0.7,1.5,1.2v-3.8c0-0.5,0.1-0.9,0.3-1.2c0.2-0.3,0.5-0.4,0.9-0.4
			c0.4,0,0.7,0.1,0.9,0.4c0.2,0.3,0.3,0.6,0.3,1.1V764c0,0.5-0.1,0.9-0.3,1.1c-0.2,0.2-0.5,0.4-0.9,0.4c-0.4,0-0.6-0.1-0.9-0.4
			C357.6,764.8,357.5,764.5,357.5,764z M352.4,760.2c0,0.7,0.1,1.3,0.3,1.8c0.2,0.5,0.5,0.9,0.9,1.1c0.4,0.3,0.8,0.4,1.2,0.4
			c0.5,0,0.9-0.1,1.3-0.4c0.4-0.2,0.7-0.6,0.9-1.1c0.2-0.5,0.3-1.1,0.3-1.8c0-0.7-0.1-1.3-0.3-1.8c-0.2-0.5-0.5-0.9-0.9-1.1
			c-0.4-0.3-0.8-0.4-1.3-0.4c-0.5,0-0.9,0.1-1.3,0.4c-0.4,0.3-0.7,0.7-0.9,1.2C352.5,758.9,352.4,759.5,352.4,760.2z"/>
		<path class="st26" d="M368.1,752.5v4c0.5-0.5,1-0.9,1.5-1.2c0.5-0.3,1.1-0.4,1.9-0.4c0.9,0,1.6,0.2,2.3,0.6c0.6,0.4,1.2,1,1.5,1.8
			c0.4,0.8,0.5,1.7,0.5,2.8c0,0.8-0.1,1.5-0.3,2.2c-0.2,0.7-0.5,1.2-0.9,1.7c-0.4,0.5-0.8,0.9-1.4,1.1c-0.5,0.3-1.1,0.4-1.8,0.4
			c-0.4,0-0.8,0-1.1-0.1c-0.4-0.1-0.7-0.2-0.9-0.4c-0.2-0.2-0.5-0.3-0.6-0.5c-0.2-0.2-0.4-0.4-0.7-0.7v0.3c0,0.5-0.1,0.9-0.4,1.1
			c-0.2,0.3-0.5,0.4-0.9,0.4c-0.4,0-0.7-0.1-0.9-0.4c-0.2-0.3-0.3-0.6-0.3-1.1v-11.3c0-0.5,0.1-0.9,0.3-1.2c0.2-0.3,0.5-0.4,0.9-0.4
			c0.4,0,0.7,0.1,0.9,0.4C368,751.7,368.1,752.1,368.1,752.5z M368.2,760.2c0,1,0.2,1.8,0.7,2.4c0.5,0.6,1.1,0.8,1.9,0.8
			c0.7,0,1.2-0.3,1.7-0.8c0.5-0.6,0.7-1.4,0.7-2.4c0-0.7-0.1-1.3-0.3-1.8c-0.2-0.5-0.5-0.9-0.8-1.1c-0.4-0.3-0.8-0.4-1.3-0.4
			c-0.5,0-0.9,0.1-1.3,0.4c-0.4,0.3-0.7,0.7-0.9,1.2C368.3,758.9,368.2,759.5,368.2,760.2z"/>
		<path class="st26" d="M379.1,765.8l0.2-0.6l-3.2-8c-0.2-0.5-0.3-0.8-0.3-1c0-0.2,0.1-0.4,0.2-0.6c0.1-0.2,0.3-0.3,0.5-0.5
			c0.2-0.1,0.4-0.2,0.6-0.2c0.4,0,0.7,0.1,0.8,0.4c0.2,0.2,0.4,0.6,0.5,1l2.2,6.4l2.1-5.9c0.2-0.5,0.3-0.9,0.4-1.1
			c0.1-0.3,0.3-0.5,0.4-0.6c0.1-0.1,0.4-0.1,0.6-0.1c0.2,0,0.4,0.1,0.6,0.2c0.2,0.1,0.3,0.2,0.4,0.4c0.1,0.2,0.1,0.4,0.1,0.6
			c0,0.1-0.1,0.3-0.1,0.5c-0.1,0.2-0.1,0.4-0.2,0.7l-3.4,8.9c-0.3,0.8-0.6,1.4-0.9,1.8c-0.3,0.4-0.6,0.8-1.1,1
			c-0.5,0.2-1.1,0.4-1.9,0.4c-0.8,0-1.3-0.1-1.7-0.2c-0.4-0.2-0.6-0.5-0.6-0.9c0-0.3,0.1-0.5,0.3-0.7c0.2-0.2,0.4-0.2,0.8-0.2
			c0.1,0,0.3,0,0.4,0.1c0.2,0,0.3,0.1,0.4,0.1c0.3,0,0.5,0,0.7-0.1c0.2-0.1,0.3-0.2,0.5-0.5C378.8,766.5,379,766.2,379.1,765.8z"/>
		<path class="st26" d="M416.7,755.1h0.6v-0.8c0-0.8,0.1-1.5,0.3-1.9c0.2-0.5,0.6-0.8,1-1c0.5-0.2,1.2-0.3,2-0.3
			c1.5,0,2.3,0.4,2.3,1.1c0,0.2-0.1,0.4-0.2,0.6c-0.2,0.2-0.3,0.3-0.6,0.3c-0.1,0-0.3,0-0.5-0.1c-0.2,0-0.5-0.1-0.6-0.1
			c-0.5,0-0.8,0.1-0.9,0.4c-0.1,0.3-0.2,0.7-0.2,1.2v0.6h0.6c1,0,1.5,0.3,1.5,0.9c0,0.4-0.1,0.7-0.4,0.8c-0.3,0.1-0.6,0.2-1.1,0.2
			h-0.6v6.9c0,0.5-0.1,0.9-0.4,1.2c-0.2,0.3-0.6,0.4-0.9,0.4c-0.4,0-0.7-0.1-0.9-0.4c-0.2-0.3-0.4-0.7-0.4-1.2V757h-0.7
			c-0.4,0-0.7-0.1-0.9-0.3c-0.2-0.2-0.3-0.4-0.3-0.7C415.4,755.5,415.8,755.1,416.7,755.1"/>
		<path class="st26" d="M425.2,761.7v2.2c0,0.5-0.1,0.9-0.4,1.2c-0.2,0.3-0.6,0.4-0.9,0.4c-0.4,0-0.7-0.1-0.9-0.4
			c-0.2-0.3-0.4-0.7-0.4-1.2v-7.2c0-1.2,0.4-1.8,1.3-1.8c0.4,0,0.7,0.1,0.9,0.4c0.2,0.3,0.3,0.7,0.3,1.2c0.3-0.5,0.6-0.9,0.9-1.2
			c0.3-0.3,0.8-0.4,1.3-0.4c0.5,0,1.1,0.1,1.6,0.4c0.5,0.3,0.8,0.6,0.8,1.1c0,0.3-0.1,0.6-0.3,0.8c-0.2,0.2-0.5,0.3-0.7,0.3
			c-0.1,0-0.3-0.1-0.7-0.2c-0.4-0.1-0.7-0.2-1-0.2c-0.4,0-0.7,0.1-0.9,0.3c-0.2,0.2-0.4,0.5-0.6,0.9c-0.1,0.4-0.2,0.9-0.3,1.4
			C425.2,760.3,425.2,760.9,425.2,761.7"/>
		<path class="st26" d="M437.1,760.8H432c0,0.6,0.1,1.1,0.4,1.6c0.2,0.4,0.5,0.8,0.9,1c0.4,0.2,0.8,0.3,1.3,0.3c0.3,0,0.6,0,0.8-0.1
			c0.3-0.1,0.5-0.2,0.7-0.3c0.2-0.2,0.5-0.3,0.7-0.5c0.2-0.2,0.5-0.4,0.8-0.7c0.1-0.1,0.3-0.2,0.6-0.2c0.3,0,0.5,0.1,0.6,0.2
			c0.2,0.1,0.2,0.4,0.2,0.6c0,0.2-0.1,0.5-0.3,0.8c-0.2,0.3-0.5,0.6-0.8,0.9c-0.4,0.3-0.8,0.5-1.4,0.7c-0.6,0.2-1.2,0.3-1.9,0.3
			c-1.7,0-3-0.5-3.9-1.4c-0.9-1-1.4-2.2-1.4-3.9c0-0.8,0.1-1.5,0.3-2.1c0.2-0.7,0.6-1.2,1-1.7c0.4-0.5,1-0.8,1.6-1.1
			c0.6-0.2,1.3-0.4,2.1-0.4c1,0,1.9,0.2,2.6,0.6c0.7,0.4,1.3,1,1.6,1.7c0.4,0.7,0.5,1.4,0.5,2.1c0,0.6-0.2,1.1-0.6,1.3
			C438.3,760.7,437.8,760.8,437.1,760.8 M432,759.4h4.7c-0.1-0.9-0.3-1.6-0.7-2c-0.4-0.4-1-0.7-1.6-0.7c-0.6,0-1.2,0.2-1.6,0.7
			C432.4,757.8,432.1,758.5,432,759.4"/>
		<path class="st26" d="M447.9,760.8h-5.1c0,0.6,0.1,1.1,0.4,1.6c0.2,0.4,0.5,0.8,0.9,1c0.4,0.2,0.8,0.3,1.3,0.3
			c0.3,0,0.6,0,0.8-0.1c0.3-0.1,0.5-0.2,0.8-0.3c0.2-0.2,0.5-0.3,0.7-0.5c0.2-0.2,0.5-0.4,0.8-0.7c0.1-0.1,0.3-0.2,0.6-0.2
			c0.3,0,0.5,0.1,0.7,0.2c0.2,0.1,0.2,0.4,0.2,0.6c0,0.2-0.1,0.5-0.3,0.8c-0.2,0.3-0.5,0.6-0.8,0.9c-0.4,0.3-0.8,0.5-1.4,0.7
			c-0.6,0.2-1.2,0.3-1.9,0.3c-1.7,0-3-0.5-3.9-1.4c-0.9-1-1.4-2.2-1.4-3.9c0-0.8,0.1-1.5,0.3-2.1c0.2-0.7,0.6-1.2,1-1.7
			c0.4-0.5,1-0.8,1.6-1.1c0.6-0.2,1.4-0.4,2.1-0.4c1,0,1.9,0.2,2.6,0.6c0.7,0.4,1.3,1,1.6,1.7c0.4,0.7,0.5,1.4,0.5,2.1
			c0,0.6-0.2,1.1-0.6,1.3C449.1,760.7,448.6,760.8,447.9,760.8 M442.8,759.4h4.7c-0.1-0.9-0.3-1.6-0.7-2c-0.4-0.4-1-0.7-1.6-0.7
			c-0.6,0-1.2,0.2-1.6,0.7C443.2,757.8,442.9,758.5,442.8,759.4"/>
		<path class="st26" d="M453.6,756.4v0.3c0.5-0.6,1-1,1.5-1.3c0.5-0.3,1.1-0.4,1.8-0.4c0.8,0,1.5,0.2,2.2,0.6c0.7,0.4,1.2,1,1.6,1.8
			c0.4,0.8,0.6,1.7,0.6,2.8c0,0.8-0.1,1.5-0.3,2.2c-0.2,0.7-0.5,1.2-0.9,1.7c-0.4,0.5-0.9,0.8-1.4,1c-0.5,0.2-1.1,0.4-1.7,0.4
			c-0.7,0-1.4-0.1-1.9-0.4c-0.5-0.3-1-0.7-1.4-1.3v3.9c0,1.1-0.4,1.7-1.2,1.7c-0.5,0-0.8-0.1-1-0.4c-0.2-0.3-0.2-0.7-0.2-1.3v-11.2
			c0-0.5,0.1-0.9,0.3-1.1c0.2-0.2,0.5-0.4,0.9-0.4c0.4,0,0.7,0.1,0.9,0.4C453.5,755.5,453.6,755.9,453.6,756.4 M458.7,760.1
			c0-0.7-0.1-1.3-0.3-1.8c-0.2-0.5-0.5-0.9-0.9-1.1c-0.4-0.3-0.8-0.4-1.2-0.4c-0.7,0-1.3,0.3-1.8,0.8c-0.5,0.6-0.7,1.4-0.7,2.5
			c0,1,0.2,1.8,0.7,2.4c0.5,0.6,1.1,0.9,1.8,0.9c0.4,0,0.8-0.1,1.2-0.4c0.4-0.3,0.7-0.6,0.9-1.1
			C458.5,761.5,458.7,760.8,458.7,760.1"/>
		<path class="st26" d="M463.9,753.7c-0.4,0-0.7-0.1-0.9-0.3c-0.3-0.2-0.4-0.5-0.4-0.9c0-0.4,0.1-0.7,0.4-0.9
			c0.3-0.2,0.6-0.4,0.9-0.4c0.3,0,0.6,0.1,0.9,0.3c0.3,0.2,0.4,0.5,0.4,0.9c0,0.4-0.1,0.7-0.4,0.9
			C464.5,753.6,464.2,753.7,463.9,753.7 M465.2,756.4v7.5c0,0.5-0.1,0.9-0.4,1.2c-0.3,0.3-0.6,0.4-0.9,0.4c-0.4,0-0.7-0.1-0.9-0.4
			c-0.2-0.3-0.4-0.7-0.4-1.2v-7.4c0-0.5,0.1-0.9,0.4-1.2c0.2-0.3,0.5-0.4,0.9-0.4c0.4,0,0.7,0.1,0.9,0.4
			C465,755.6,465.2,755.9,465.2,756.4"/>
		<path class="st26" d="M473.5,764.3l-2.3-3.8l-1.4,1.3v2.1c0,0.5-0.1,0.9-0.4,1.2c-0.3,0.3-0.6,0.4-0.9,0.4c-0.4,0-0.7-0.1-0.9-0.4
			c-0.2-0.3-0.3-0.7-0.3-1.2v-11.1c0-0.6,0.1-1,0.3-1.3c0.2-0.3,0.5-0.5,1-0.5c0.4,0,0.7,0.1,0.9,0.4c0.2,0.3,0.4,0.7,0.4,1.2v6.3
			l2.9-3.1c0.4-0.4,0.6-0.6,0.8-0.8c0.2-0.1,0.4-0.2,0.7-0.2c0.3,0,0.6,0.1,0.8,0.3c0.2,0.2,0.3,0.5,0.3,0.8c0,0.4-0.4,0.9-1.1,1.5
			l-1.4,1.3l2.7,4.2c0.2,0.3,0.3,0.5,0.4,0.7c0.1,0.2,0.1,0.3,0.1,0.5c0,0.4-0.1,0.7-0.3,1c-0.2,0.2-0.5,0.4-0.9,0.4
			c-0.3,0-0.6-0.1-0.7-0.3C474,765,473.8,764.7,473.5,764.3"/>
		<path class="st26" d="M479.2,765.5c-0.4,0-0.7-0.1-1-0.4c-0.3-0.3-0.4-0.6-0.4-1.1c0-0.4,0.1-0.7,0.4-1c0.3-0.3,0.6-0.4,1-0.4
			c0.4,0,0.7,0.1,1,0.4c0.3,0.3,0.4,0.6,0.4,1c0,0.5-0.1,0.8-0.4,1.1C479.9,765.3,479.5,765.5,479.2,765.5"/>
		<path class="st26" d="M492.1,762.2c0,0.3-0.1,0.7-0.3,1c-0.2,0.4-0.5,0.7-0.9,1c-0.4,0.3-0.9,0.6-1.5,0.8c-0.6,0.2-1.3,0.3-2,0.3
			c-1.6,0-2.9-0.5-3.8-1.4c-0.9-0.9-1.3-2.2-1.3-3.8c0-1.1,0.2-2,0.6-2.8c0.4-0.8,1-1.4,1.8-1.9c0.8-0.4,1.7-0.7,2.8-0.7
			c0.7,0,1.3,0.1,1.9,0.3c0.6,0.2,1,0.5,1.4,0.8c0.4,0.3,0.7,0.6,0.9,1c0.2,0.4,0.3,0.7,0.3,1c0,0.3-0.1,0.6-0.3,0.8
			c-0.2,0.2-0.5,0.3-0.8,0.3c-0.2,0-0.4-0.1-0.5-0.2c-0.1-0.1-0.3-0.3-0.5-0.5c-0.3-0.5-0.6-0.8-1-1.1c-0.3-0.2-0.8-0.4-1.3-0.4
			c-0.8,0-1.4,0.3-1.9,0.9c-0.5,0.6-0.7,1.4-0.7,2.5c0,0.5,0.1,0.9,0.2,1.3c0.1,0.4,0.3,0.8,0.5,1c0.2,0.3,0.5,0.5,0.8,0.7
			c0.3,0.2,0.7,0.2,1.1,0.2c0.5,0,1-0.1,1.3-0.4c0.4-0.2,0.7-0.6,1-1.1c0.2-0.3,0.3-0.5,0.5-0.7c0.2-0.2,0.4-0.2,0.7-0.2
			c0.3,0,0.6,0.1,0.8,0.4C491.9,761.7,492.1,762,492.1,762.2"/>
		<path class="st26" d="M503.2,760.2c0,0.8-0.1,1.5-0.4,2.1c-0.2,0.7-0.6,1.2-1,1.7c-0.5,0.5-1,0.8-1.6,1.1
			c-0.6,0.2-1.3,0.4-2.1,0.4c-0.8,0-1.5-0.1-2.1-0.4c-0.6-0.3-1.2-0.6-1.6-1.1c-0.5-0.5-0.8-1-1.1-1.7c-0.2-0.6-0.3-1.4-0.3-2.1
			c0-0.8,0.1-1.5,0.4-2.2c0.2-0.7,0.6-1.2,1-1.7c0.5-0.5,1-0.8,1.6-1.1c0.6-0.3,1.3-0.4,2.1-0.4c0.8,0,1.5,0.1,2.1,0.4
			c0.6,0.3,1.2,0.6,1.6,1.1c0.5,0.5,0.8,1,1,1.7C503.1,758.7,503.2,759.4,503.2,760.2 M500.6,760.2c0-1.1-0.2-1.9-0.7-2.5
			c-0.5-0.6-1.1-0.9-1.9-0.9c-0.5,0-1,0.1-1.3,0.4c-0.4,0.3-0.7,0.7-0.9,1.2c-0.2,0.5-0.3,1.1-0.3,1.8c0,0.7,0.1,1.3,0.3,1.8
			c0.2,0.5,0.5,0.9,0.9,1.2c0.4,0.3,0.8,0.4,1.4,0.4c0.8,0,1.4-0.3,1.9-0.9C500.4,762,500.6,761.2,500.6,760.2"/>
		<path class="st26" d="M513.1,760.4v3.4c0,0.5-0.1,1-0.4,1.2c-0.3,0.3-0.6,0.4-1,0.4c-0.4,0-0.7-0.1-1-0.4
			c-0.2-0.3-0.4-0.7-0.4-1.2v-4.1c0-0.7,0-1.2-0.1-1.5c0-0.4-0.2-0.7-0.4-0.9c-0.2-0.2-0.5-0.4-0.9-0.4c-0.8,0-1.4,0.3-1.7,0.9
			c-0.3,0.6-0.4,1.4-0.4,2.5v3.5c0,0.5-0.1,0.9-0.4,1.2c-0.3,0.3-0.6,0.4-1,0.4c-0.4,0-0.7-0.1-1-0.4c-0.3-0.3-0.4-0.7-0.4-1.2v-7.4
			c0-0.5,0.1-0.9,0.3-1.1c0.2-0.3,0.5-0.4,0.9-0.4c0.4,0,0.7,0.1,0.9,0.4c0.2,0.2,0.4,0.6,0.4,1v0.2c0.5-0.5,0.9-0.9,1.4-1.2
			c0.5-0.3,1.1-0.4,1.7-0.4c0.7,0,1.2,0.1,1.7,0.4c0.5,0.3,0.9,0.7,1.2,1.2c0.4-0.5,0.9-0.9,1.4-1.2c0.5-0.3,1.1-0.4,1.7-0.4
			c0.7,0,1.3,0.1,1.8,0.4c0.5,0.3,0.9,0.7,1.1,1.2c0.2,0.5,0.3,1.2,0.3,2.2v5.1c0,0.5-0.1,1-0.4,1.2c-0.2,0.3-0.6,0.4-1,0.4
			c-0.4,0-0.7-0.1-1-0.4c-0.3-0.3-0.4-0.7-0.4-1.2v-4.4c0-0.6,0-1-0.1-1.3c0-0.3-0.2-0.6-0.4-0.8c-0.2-0.2-0.5-0.3-1-0.3
			c-0.3,0-0.7,0.1-1,0.3c-0.3,0.2-0.5,0.5-0.7,0.8C513.2,758.5,513.1,759.3,513.1,760.4"/>
		<path class="st26" d="M392.4,759.6C392.4,759.6,392.4,759.6,392.4,759.6C392.4,759.6,392.4,759.6,392.4,759.6z"/>
		<path class="st26" d="M392.6,760.4C392.6,760.4,392.6,760.4,392.6,760.4c0-0.2-0.1-0.5-0.1-0.7
			C392.5,759.9,392.5,760.2,392.6,760.4z"/>
		<path class="st26" d="M393.4,762.8C393.4,762.8,393.4,762.8,393.4,762.8C393.4,762.8,393.4,762.8,393.4,762.8z"/>
		<path class="st26" d="M393.3,762.6c0,0,0-0.1-0.1-0.1C393.3,762.5,393.3,762.6,393.3,762.6z"/>
		<path class="st26" d="M392.8,761.3c0.1,0.4,0.3,0.8,0.5,1.2C393.1,762.1,392.9,761.7,392.8,761.3L392.8,761.3z"/>
		<path class="st26" d="M402.5,749.6c0.5,0,0.9,0,1.3,0.1l0.1-0.8c0,0-1.2-0.4-2.7-0.2l-0.1-0.4c0.5-0.1,0.8-0.5,0.8-1
			c0-0.6-0.5-1.1-1.1-1.1c-0.6,0-1.1,0.5-1.1,1.1c0,0.5,0.4,0.9,0.8,1l0.1,0.5c-1.6,0.2-2.9,0.9-2.9,0.9l0.2,0.7
			c1-0.3,1.8-0.5,2.6-0.6C401.4,749.7,402,749.6,402.5,749.6z"/>
		<path class="st26" d="M393.4,753.5L393.4,753.5c0-0.1,0.1-0.1,0.1-0.2l-0.3-0.2l-0.5-0.4c0,0-0.8,0.7-1.4,2c0,0-0.1-0.1-0.1-0.1
			c-0.2-0.2-0.4-0.3-0.8-0.3c0,0,0,0,0,0c-0.2,0-0.3-0.1-0.4-0.1c0.1-0.1,0.1-0.3,0.1-0.4c0-0.4-0.3-0.7-0.7-0.7
			c-0.4,0-0.7,0.3-0.7,0.7s0.3,0.7,0.7,0.7c0.1,0,0.1,0,0.2,0c0.2,0.2,0.4,0.3,0.8,0.3c0.2,0,0.3,0,0.4,0.2c0.1,0.1,0.1,0.3,0.2,0.4
			c0,0,0,0,0,0c-0.4,1.2-0.3,2.7-0.3,2.7l1.1,0c0-0.5,0.1-1.5,0.4-2.2C392.7,754.4,393.4,753.5,393.4,753.5z"/>
		<path class="st26" d="M411.7,750.5c-0.4,0-0.7,0.3-0.7,0.7c0,0.1,0,0.1,0,0.2c-0.2,0.2-0.3,0.4-0.3,0.8c0,0.2,0,0.3-0.2,0.4
			c-0.1,0.1-0.2,0.1-0.3,0.1c-0.8-1.1-1.8-1.8-1.8-1.8l-0.8,0.8c0.6,0.5,1.2,1.2,1.7,2c0.4,0.6,0.8,1.3,1.1,2l1-0.5
			c0,0-0.5-1.2-1.1-2.2c0.1,0,0.2-0.1,0.3-0.2c0.2-0.2,0.3-0.4,0.3-0.8c0-0.2,0.1-0.3,0.1-0.4c0.1,0.1,0.3,0.1,0.4,0.1
			c0.4,0,0.7-0.3,0.7-0.7C412.3,750.8,412,750.5,411.7,750.5z"/>
		<path class="st26" d="M409,759.7c-1.4,0.7-3.7,1.6-6.8,2c-1.2,0.2-2.4,0.2-3.4,0.2c-1.4,0-2.6-0.1-3.6-0.2
			c-1.1-0.1-1.9-0.3-2.4-0.4c0.1,0.4,0.3,0.8,0.5,1.2c0,0,0,0,0,0c0,0,0,0.1,0.1,0.1c0,0,0,0.1,0.1,0.1c0,0,0,0,0,0
			c0.3,0.6,0.7,1.1,1.1,1.5c1.4,1.6,2.9,1.8,2.9,1.8l0,0l0,0c0,0,1.3,0.4,3.3,0.4c1.9,0,3.9-0.4,5.7-1.2c1.3-0.7,2.6-1.7,3.3-2.7
			c0.5-0.7,0.8-1.5,1.1-2.3c0.1-0.4,0.2-1.1,0.1-1.8C410.5,758.9,409.9,759.3,409,759.7z"/>
		<path class="st26" d="M393.9,753.8c0,0.1-0.7,0.9-1.1,2.3c-0.4,1-0.3,2.4-0.3,2.5v0c0,0.3,0,0.7,0.1,1c0,0,0,0,0,0
			c0,0,0,0.1,0,0.1c0,0.2,0.1,0.5,0.1,0.7c0.7,0.2,4.9,1.2,9.5,0.5c2.9-0.4,5.2-1.3,6.5-1.9c1.1-0.5,1.8-1,2.1-1.2
			c-0.3-1-1-2.6-1.7-3.6c-2-2.9-4.2-3.6-5.3-3.8c-0.4-0.1-0.8-0.1-1.2-0.1c-0.4,0-1,0-1.7,0.1c-0.7,0.1-1.6,0.3-2.5,0.6
			c-1.3,0.5-2.6,1.2-3.5,2l0,0C394.5,753.1,394.2,753.4,393.9,753.8z M406.1,753.1c1,0,1.7,0.8,1.7,1.7c0,1-0.8,1.7-1.7,1.7
			c-1,0-1.7-0.8-1.7-1.7C404.4,753.9,405.2,753.1,406.1,753.1z M397.9,753.1c1.6,0,2.8,1.3,2.8,2.8c0,1.6-1.3,2.8-2.8,2.8
			c-1.6,0-2.8-1.3-2.8-2.8C395.1,754.3,396.3,753.1,397.9,753.1z"/>
	</g>
</g>
</svg>
