<?xml version="1.0" standalone="no"?>
<!DOCTYPE svg PUBLIC "-//W3C//DTD SVG 20010904//EN"
 "http://www.w3.org/TR/2001/REC-SVG-20010904/DTD/svg10.dtd">
<svg version="1.0" xmlns="http://www.w3.org/2000/svg"
 width="1920.000000pt" height="1080.000000pt" viewBox="0 0 1920.000000 1080.000000"
 preserveAspectRatio="xMidYMid meet">

<g transform="translate(0.000000,1080.000000) scale(0.100000,-0.100000)"
fill="#000000" stroke="none">
<path d="M0 5400 l0 -5400 9600 0 9600 0 0 5400 0 5400 -9600 0 -9600 0 0
-5400z m10085 4299 c660 -50 1261 -324 1726 -789 241 -241 382 -436 530 -735
129 -262 206 -508 256 -820 23 -140 25 -600 5 -740 -77 -510 -251 -923 -561
-1330 -93 -123 -313 -346 -441 -448 -274 -218 -604 -390 -943 -492 -411 -124
-916 -143 -1341 -50 -1016 220 -1823 994 -2076 1989 -72 284 -96 496 -87 771
19 575 203 1098 547 1560 553 740 1463 1154 2385 1084z"/>
<path d="M9670 9524 c-134 -15 -280 -39 -365 -59 -969 -228 -1726 -1004 -1925
-1972 -52 -252 -66 -581 -35 -827 59 -478 251 -933 551 -1306 187 -233 482
-482 746 -628 50 -28 57 -30 62 -14 2 9 14 60 26 112 44 202 122 382 242 565
107 162 111 171 143 286 71 249 77 283 80 484 2 105 8 214 14 244 19 93 15
145 -15 181 -33 38 -118 83 -144 75 -30 -9 -44 -66 -31 -126 6 -27 11 -79 11
-115 0 -57 -2 -65 -17 -62 -18 3 -26 66 -27 231 -1 64 1 71 27 91 15 12 27 25
27 28 0 4 -11 24 -25 44 -16 23 -25 51 -25 75 0 32 -5 40 -35 59 -50 31 -37
57 18 35 15 -6 17 -1 17 41 0 26 -5 77 -12 113 l-12 66 -7 -69 c-8 -68 -21
-99 -37 -80 -4 5 -5 92 -1 194 6 151 11 196 28 244 28 79 28 144 -2 187 -13
19 -26 39 -30 46 -5 7 6 28 26 50 18 21 43 53 56 71 19 27 20 32 6 32 -9 0
-27 11 -40 25 -32 31 -33 85 -4 132 29 46 169 164 281 237 20 13 51 19 104 21
63 2 80 7 109 29 65 50 114 66 201 66 76 0 82 2 88 23 11 43 8 49 -21 30 -27
-16 -27 -15 5 18 34 37 44 63 15 37 -10 -9 -29 -19 -43 -23 -24 -7 -24 -6 -6
7 18 14 17 15 -20 20 -21 3 -45 7 -53 9 -8 3 -20 -14 -31 -46 l-18 -50 -1 39
c-1 33 -3 37 -16 26 -20 -17 -19 0 2 30 l17 25 -22 -19 -21 -18 9 33 c8 30 62
89 81 89 14 0 27 66 32 161 6 111 24 156 84 210 22 20 37 41 35 47 -7 22 38
70 90 96 43 21 66 26 130 26 90 0 129 -13 204 -70 59 -45 95 -109 121 -218 19
-79 50 -122 138 -192 98 -78 83 -110 -49 -110 -84 0 -125 -15 -132 -48 -12
-54 -15 -59 -38 -70 -15 -7 -27 -23 -31 -44 -4 -18 -20 -51 -36 -72 l-28 -39
20 -28 c32 -45 79 -193 79 -249 0 -28 10 -88 21 -133 19 -70 21 -99 16 -194
-4 -62 -5 -113 -4 -113 12 0 354 124 364 131 7 6 29 36 49 67 53 82 93 121
136 132 79 22 138 -37 241 -241 70 -139 97 -230 76 -255 -22 -27 -58 -15 -104
32 -35 36 -46 42 -51 30 -5 -12 718 -2209 732 -2225 14 -15 226 243 321 390
205 317 332 661 389 1054 24 163 24 493 0 665 -76 558 -313 1048 -696 1444
-211 218 -427 378 -688 509 -253 128 -507 210 -782 253 -100 15 -504 28 -590
18z"/>
<path d="M8991 7718 c-28 -33 -32 -43 -22 -57 6 -9 18 -29 25 -46 l14 -29 12
42 c6 24 10 63 8 87 l-3 44 -34 -41z"/>
<path d="M10990 7522 c0 -32 7 -45 45 -82 l46 -45 -17 40 c-18 44 -63 125 -70
125 -2 0 -4 -17 -4 -38z"/>
<path d="M10720 7501 c-43 -5 -72 -17 -135 -57 -44 -28 -120 -73 -170 -99 -49
-26 -91 -48 -93 -50 -2 -1 7 -21 18 -44 25 -47 39 -140 40 -259 0 -72 4 -90
26 -128 24 -41 26 -49 15 -83 -6 -21 -11 -56 -11 -77 0 -60 -47 -127 -99 -142
-22 -7 -41 -16 -41 -20 0 -4 16 -18 36 -31 54 -37 74 -86 74 -177 0 -71 4 -86
46 -176 25 -54 47 -116 49 -136 1 -20 15 -64 30 -97 15 -33 38 -114 52 -179
20 -97 30 -127 55 -159 35 -44 58 -118 58 -189 0 -39 8 -61 46 -124 64 -104
79 -149 104 -304 26 -167 44 -244 70 -304 l19 -46 123 61 c208 104 433 259
583 402 l76 72 -302 900 c-165 495 -335 1000 -376 1123 l-75 222 -38 0 c-37 0
-39 2 -45 38 -14 80 -7 77 -135 63z"/>
<path d="M10208 7104 c-3 -103 -2 -106 24 -131 14 -14 41 -53 59 -87 l33 -61
9 60 c13 93 4 206 -19 246 -18 31 -76 79 -95 79 -4 0 -9 -48 -11 -106z"/>
<path d="M9783 5980 l-21 -50 -49 0 c-48 0 -48 -1 -84 -58 -20 -31 -55 -95
-78 -142 -23 -47 -65 -119 -92 -162 -39 -59 -52 -89 -59 -136 -4 -33 -14 -71
-21 -83 -19 -38 -76 -100 -107 -119 -60 -37 -186 -223 -230 -340 -12 -30 -42
-108 -67 -173 -26 -66 -44 -121 -41 -124 13 -13 274 -94 378 -117 227 -51 309
-60 558 -60 239 -1 322 6 529 46 89 16 329 83 339 93 6 6 -73 116 -157 220
-59 73 -90 122 -117 185 -62 148 -76 201 -82 300 -5 91 -6 96 -49 159 -25 35
-59 83 -77 105 -18 23 -65 89 -105 148 l-72 107 -42 -5 c-42 -6 -44 -5 -88 49
-25 31 -65 90 -89 131 -24 42 -46 76 -50 76 -3 0 -16 -22 -27 -50z"/>
</g>
</svg>
