<?xml version="1.0" standalone="no"?>
<!DOCTYPE svg PUBLIC "-//W3C//DTD SVG 20010904//EN"
 "http://www.w3.org/TR/2001/REC-SVG-20010904/DTD/svg10.dtd">
<svg version="1.0" xmlns="http://www.w3.org/2000/svg"
 width="1920.000000pt" height="1080.000000pt" viewBox="0 0 1920.000000 1080.000000"
 preserveAspectRatio="xMidYMid meet">

<g transform="translate(0.000000,1080.000000) scale(0.100000,-0.100000)"
fill="#000000" stroke="none">
<path d="M9745 9529 c-538 -28 -1056 -229 -1481 -575 -131 -106 -328 -313
-436 -458 -541 -727 -655 -1681 -302 -2523 128 -305 300 -559 549 -809 183
-183 357 -317 556 -428 l66 -36 23 97 c52 231 127 408 254 601 48 73 96 153
107 176 10 23 39 123 64 222 46 179 47 179 50 379 2 110 9 220 14 245 18 83
14 135 -15 169 -31 38 -120 84 -145 76 -27 -9 -43 -75 -29 -123 5 -20 10 -70
10 -109 0 -64 -2 -73 -19 -73 -16 0 -19 13 -25 133 -7 142 -1 177 34 199 20
13 28 38 11 38 -15 0 -41 66 -41 103 0 30 -6 39 -35 57 -19 12 -35 26 -35 31
0 15 30 23 43 10 25 -25 30 -9 23 72 -3 45 -10 96 -15 112 -9 28 -9 27 -10
-16 -1 -73 -12 -110 -29 -107 -13 3 -15 27 -13 163 2 163 10 223 36 301 22 66
19 125 -8 165 -13 19 -26 39 -30 45 -3 6 16 39 43 73 50 62 59 81 40 81 -6 0
-22 11 -35 25 -18 17 -25 35 -25 64 0 53 42 108 145 188 44 35 94 73 110 86
52 42 78 51 152 53 59 1 77 6 105 27 64 49 117 67 204 67 76 0 82 2 88 23 11
43 8 49 -16 33 -38 -27 -40 -17 -3 15 19 17 35 36 35 42 0 5 -8 3 -17 -5 -10
-9 -29 -19 -43 -23 -24 -7 -24 -6 -6 7 18 14 17 15 -20 20 -21 3 -45 7 -53 9
-10 3 -20 -14 -32 -51 l-17 -55 -1 44 c-1 36 -3 41 -15 32 -20 -17 -27 9 -15
53 9 31 58 86 79 86 15 0 30 63 30 131 0 118 15 165 74 225 28 29 50 59 48 67
-5 23 36 64 90 91 73 37 192 37 264 1 110 -55 165 -132 194 -271 15 -71 40
-106 131 -180 99 -81 90 -114 -32 -114 -34 0 -79 -5 -100 -11 -34 -11 -39 -17
-47 -53 -5 -30 -15 -44 -34 -54 -17 -8 -28 -23 -32 -45 -3 -19 -19 -51 -35
-73 l-29 -38 20 -28 c35 -49 78 -184 78 -244 0 -30 10 -92 21 -137 18 -69 21
-100 16 -195 -5 -102 -4 -112 11 -107 9 3 91 31 182 64 l165 58 58 86 c45 68
66 90 102 107 65 31 99 22 154 -40 62 -71 164 -269 188 -367 13 -51 13 -66 3
-78 -23 -28 -61 -18 -107 30 -33 35 -45 42 -49 31 -5 -12 719 -2210 733 -2225
6 -8 82 71 158 164 248 305 444 715 520 1088 75 374 72 735 -10 1103 -159 709
-649 1347 -1295 1688 -419 221 -870 320 -1345 295z"/>
<path d="M9550 8455 c-7 -9 -11 -17 -9 -20 3 -2 10 5 17 15 14 24 10 26 -8 5z"/>
<path d="M8999 7728 c-40 -52 -42 -58 -26 -76 9 -10 20 -29 25 -42 9 -23 10
-20 22 30 6 30 10 70 8 88 l-3 32 -26 -32z"/>
<path d="M10990 7517 c0 -26 10 -42 45 -77 l46 -45 -16 39 c-18 42 -62 116
-70 116 -3 0 -5 -15 -5 -33z"/>
<path d="M10730 7501 c-56 -5 -75 -13 -140 -55 -41 -27 -118 -72 -170 -99 -52
-27 -95 -52 -94 -56 0 -3 10 -27 23 -53 18 -40 23 -72 27 -185 5 -121 9 -144
31 -187 22 -44 24 -54 14 -86 -6 -21 -11 -54 -11 -73 0 -36 -30 -106 -54 -126
-7 -6 -30 -17 -51 -24 l-38 -13 37 -29 c59 -45 80 -95 81 -195 2 -73 6 -92 30
-135 34 -62 67 -154 59 -167 -4 -5 8 -41 26 -78 17 -38 43 -125 57 -192 20
-97 32 -130 55 -159 35 -44 58 -115 58 -182 0 -41 8 -64 51 -138 66 -115 75
-140 104 -327 24 -147 66 -305 85 -317 14 -8 249 116 371 196 109 72 261 190
362 281 l47 43 -376 1128 -376 1127 -38 0 c-40 0 -50 11 -50 55 0 38 -11 55
-34 53 -11 0 -50 -4 -86 -7z"/>
<path d="M10208 7104 l-3 -105 31 -30 c17 -17 42 -52 54 -80 13 -27 27 -49 31
-49 11 0 22 144 16 205 -7 68 -28 108 -74 140 -21 14 -41 25 -45 25 -4 0 -8
-47 -10 -106z"/>
<path d="M9789 5993 c-17 -56 -27 -63 -78 -63 -46 0 -47 -1 -78 -52 -17 -29
-54 -98 -83 -153 -29 -55 -72 -129 -96 -166 -31 -48 -46 -81 -53 -126 -12 -76
-30 -111 -81 -160 -111 -106 -136 -133 -172 -187 -42 -60 -128 -234 -128 -256
0 -7 -21 -62 -46 -122 -38 -89 -44 -112 -33 -119 26 -16 194 -71 304 -100 229
-60 345 -73 630 -74 256 0 323 5 510 41 88 17 324 81 345 94 15 9 -60 120
-155 230 -103 120 -184 321 -193 479 l-5 94 -58 81 c-32 45 -99 140 -149 212
l-92 131 -42 -4 c-41 -5 -43 -4 -88 51 -26 31 -66 90 -90 131 -24 41 -46 75
-50 75 -3 0 -12 -17 -19 -37z"/>
</g>
</svg>
